<svg width="256" height="256" viewBox="0 0 256 256" fill="none" xmlns="http://www.w3.org/2000/svg">
<g clip-path="url(#clip0_101_3)">
<rect width="256" height="256" fill="#4B6362"/>
<ellipse cx="127.5" cy="112" rx="48.5" ry="47" fill="#161D21"/>
<path d="M64 229.5C61.2386 229.5 58.9887 227.26 59.1077 224.501C59.5409 214.457 61.2772 204.566 64.2523 195.25C67.7199 184.391 72.8024 174.525 79.2096 166.214C85.6169 157.903 93.2234 151.311 101.595 146.813C109.966 142.315 118.939 140 128 140C137.061 140 146.034 142.315 154.405 146.813C162.777 151.311 170.383 157.903 176.79 166.214C183.198 174.525 188.28 184.391 191.748 195.25C194.723 204.566 196.459 214.457 196.892 224.501C197.011 227.26 194.761 229.5 192 229.5L128 229.5L64 229.5Z" fill="#161D21"/>
<path d="M127.138 84.5408C128.105 83.741 128.105 82.259 127.138 81.4592L87.2751 48.4712C85.9712 47.3921 84 48.3195 84 50.012V115.988C84 117.68 85.9712 118.608 87.2751 117.529L127.138 84.5408Z" fill="#161D21"/>
<path d="M127.862 84.5408C126.895 83.741 126.895 82.259 127.862 81.4592L167.725 48.4712C169.029 47.3921 171 48.3195 171 50.012V115.988C171 117.68 169.029 118.608 167.725 117.529L127.862 84.5408Z" fill="#161D21"/>
<line x1="120.908" y1="123.492" x2="45.9083" y2="109.492" stroke="#161D21"/>
<line x1="121.046" y1="123.498" x2="46.0465" y2="130.498" stroke="#161D21"/>
<line x1="121.174" y1="123.469" x2="51.1741" y2="149.469" stroke="#161D21"/>
<line y1="-0.5" x2="76.2955" y2="-0.5" transform="matrix(0.98302 -0.183497 -0.183497 -0.98302 136 123)" stroke="#161D21"/>
<line y1="-0.5" x2="75.326" y2="-0.5" transform="matrix(0.995673 0.0929295 0.0929295 -0.995673 136 123)" stroke="#161D21"/>
<line y1="-0.5" x2="74.6726" y2="-0.5" transform="matrix(0.937425 0.348187 0.348187 -0.937425 136 123)" stroke="#161D21"/>
</g>
<defs>
<clipPath id="clip0_101_3">
<rect width="256" height="256" fill="white"/>
</clipPath>
</defs>
</svg>
