<?xml version="1.0" encoding="UTF-8" standalone="no"?>
<!-- Created with Inkscape (http://www.inkscape.org/) -->

<svg
   width="1920"
   height="768"
   viewBox="0 0 1920 768.00006"
   version="1.1"
   id="svg1"
   xml:space="preserve"
   inkscape:version="1.4.2 (ebf0e94, 2025-05-08)"
   sodipodi:docname="обложка-профиля.svg"
   xmlns:inkscape="http://www.inkscape.org/namespaces/inkscape"
   xmlns:sodipodi="http://sodipodi.sourceforge.net/DTD/sodipodi-0.dtd"
   xmlns:xlink="http://www.w3.org/1999/xlink"
   xmlns="http://www.w3.org/2000/svg"
   xmlns:svg="http://www.w3.org/2000/svg"><sodipodi:namedview
     id="namedview1"
     pagecolor="#ffffff"
     bordercolor="#000000"
     borderopacity="0.25"
     inkscape:showpageshadow="2"
     inkscape:pageopacity="0.0"
     inkscape:pagecheckerboard="0"
     inkscape:deskcolor="#d1d1d1"
     inkscape:document-units="mm"
     inkscape:zoom="0.39242074"
     inkscape:cx="951.78456"
     inkscape:cy="238.26467"
     inkscape:window-width="1854"
     inkscape:window-height="1131"
     inkscape:window-x="0"
     inkscape:window-y="0"
     inkscape:window-maximized="1"
     inkscape:current-layer="layer1" /><defs
     id="defs1"><linearGradient
       id="linearGradient15"
       inkscape:collect="always"><stop
         style="stop-color:#a0b9b7;stop-opacity:1;"
         offset="0"
         id="stop15" /><stop
         style="stop-color:#a0b9b7;stop-opacity:0;"
         offset="1"
         id="stop16" /></linearGradient><linearGradient
       id="linearGradient7"
       inkscape:collect="always"><stop
         style="stop-color:#c7d0c5;stop-opacity:1;"
         offset="0"
         id="stop7" /><stop
         style="stop-color:#c7d0c5;stop-opacity:0;"
         offset="1"
         id="stop8" /></linearGradient><linearGradient
       id="linearGradient3"
       inkscape:collect="always"><stop
         style="stop-color:#c7d0c5;stop-opacity:1;"
         offset="0"
         id="stop3" /><stop
         style="stop-color:#c7d0c5;stop-opacity:0;"
         offset="1"
         id="stop4" /></linearGradient><linearGradient
       id="linearGradient1"
       inkscape:collect="always"><stop
         style="stop-color:#577478;stop-opacity:1;"
         offset="0"
         id="stop1" /><stop
         style="stop-color:#b5cdcf;stop-opacity:1;"
         offset="1"
         id="stop2" /></linearGradient><linearGradient
       inkscape:collect="always"
       xlink:href="#linearGradient1"
       id="linearGradient2"
       x1="960.00006"
       y1="0"
       x2="960.00006"
       y2="768"
       gradientUnits="userSpaceOnUse" /><linearGradient
       inkscape:collect="always"
       xlink:href="#linearGradient3"
       id="linearGradient4"
       x1="1920.0001"
       y1="180.92827"
       x2="1309.8188"
       y2="768"
       gradientUnits="userSpaceOnUse" /><linearGradient
       inkscape:collect="always"
       xlink:href="#linearGradient7"
       id="linearGradient8"
       x1="1430.7164"
       y1="263.13632"
       x2="1162.2318"
       y2="654.15076"
       gradientUnits="userSpaceOnUse" /><linearGradient
       inkscape:collect="always"
       xlink:href="#linearGradient7"
       id="linearGradient11"
       x1="837.47308"
       y1="428.18994"
       x2="150.38864"
       y2="89.26799"
       gradientUnits="userSpaceOnUse" /><linearGradient
       inkscape:collect="always"
       xlink:href="#linearGradient15"
       id="linearGradient16"
       x1="64.868754"
       y1="311.68885"
       x2="1515.4062"
       y2="311.68885"
       gradientUnits="userSpaceOnUse" /></defs><g
     inkscape:label="Слой 1"
     inkscape:groupmode="layer"
     id="layer1"><rect
       style="fill:url(#linearGradient2);stroke:none;stroke-width:3;stroke-linecap:round;stroke-linejoin:round;fill-opacity:1"
       id="rect1"
       width="1920.0001"
       height="768"
       x="0"
       y="0" /><path
       style="fill:url(#linearGradient4);stroke:none;stroke-width:3;stroke-linecap:round;stroke-linejoin:round"
       d="m 1920.0001,180.92827 c -122.8131,-25.60325 -369.5,35.96208 -263.6145,203.86283 -110.6535,-44.75145 -169.8375,47.39904 -145.2523,81.54513 -75.357,6.53608 -59.3101,112.9323 -22.9346,142.70398 0,0 -84.0934,-48.41742 -152.8971,28.03114 C 1266.4978,713.51992 1309.8188,768 1309.8188,768 c 85.1233,-242.391 212.5369,-38.49504 231.8939,0 27.686,-209.01155 206.7095,-115.82923 219.1526,-95.25264 -36.7972,-133.3747 85.0664,-274.15287 159.1348,-142.70399 z"
       id="path2"
       sodipodi:nodetypes="ccccsccccc" /><path
       style="fill:#c7d0c5;fill-opacity:1;stroke:none;stroke-width:5.27662;stroke-linecap:round;stroke-linejoin:round"
       d="m 879.91709,249.84636 c 1.58467,0.79233 36.05114,6.33866 55.06713,4.754 19.01599,-1.58467 25.7508,-8.71565 37.23964,-5.15015 11.48881,3.56548 41.99364,22.1853 41.99364,22.1853 0,0 -9.1119,11.48883 -9.1119,17.03516 0,5.54632 -2.3769,9.90416 4.3579,11.48881 6.7348,1.58468 9.508,0.39617 11.4888,-2.37699 1.9808,-2.77316 5.9425,-6.33866 5.9425,-6.33866 0,0 17.8275,-5.54633 26.147,-9.90416 8.3195,-4.35782 31.6933,-32.8818 31.6933,-32.8818 0,0 -9.508,-3.96167 -21.393,-2.37699 -11.885,1.58465 -25.3546,8.71565 -25.3546,8.71565 0,0 -50.31316,-20.99681 -66.55598,-20.99681 -16.24283,0 -100.62626,6.73481 -91.51443,15.84664 z"
       id="path4" /><path
       style="fill:#c7d0c5;fill-opacity:1;stroke:none;stroke-width:5.27662;stroke-linecap:round;stroke-linejoin:round"
       d="m 1053.0418,281.53967 c 0,0 32.4856,-9.11183 50.3131,-6.33866 17.8275,2.77316 63.7828,21.39297 82.0064,23.76999 18.2237,2.37699 33.2781,3.5655 32.0895,0 -1.1885,-3.5655 -69.7253,-30.10866 -91.5144,-32.08948 -21.7892,-1.98083 -53.5218,-3.87081 -53.5218,-3.87081 0,0 -12.2418,4.26698 -18.9767,9.02096 -6.7348,4.75401 -0.3961,9.508 -0.3961,9.508 z"
       id="path5" /><path
       style="fill:#c7d0c5;fill-opacity:1;stroke:none;stroke-width:5.27662;stroke-linecap:round;stroke-linejoin:round"
       d="m 1004.3133,295.80167 c 0,0 -3.9616,5.15015 -5.15014,11.88498 -1.18851,6.73483 0.79234,10.30033 0.79234,10.30033 0,0 5.9425,-11.09267 7.9233,-13.46966 1.9809,-2.37699 6.3387,-3.96167 5.5463,-5.94249 -0.7923,-1.98085 -9.1118,-2.77316 -9.1118,-2.77316 z"
       id="path6" /><path
       style="fill:url(#linearGradient8);fill-opacity:1;stroke:none;stroke-width:3;stroke-linecap:round;stroke-linejoin:round"
       d="m 1414.4993,436.0622 c 0,0 -93.6993,-25.22674 -145.9548,1.80191 -52.2554,27.02865 -57.6611,84.68976 -57.6611,84.68976 0,0 -36.0382,-18.0191 -77.4821,9.00955 -41.4439,27.02865 -54.0573,84.68976 -54.0573,84.68976 0,0 21.6229,-82.88785 84.6898,-72.07639 63.0668,10.81146 115.3222,64.86875 115.3222,64.86875 0,0 -14.4153,-77.48212 30.6325,-102.70886 45.0478,-25.22673 117.1242,27.02865 117.1242,27.02865 0,0 -93.6993,-55.8592 -12.6134,-97.30313 z"
       id="path7"
       sodipodi:nodetypes="cscscscscc" /><path
       style="fill:url(#linearGradient16);fill-opacity:1;stroke:none;stroke-width:3;stroke-linecap:round;stroke-linejoin:round"
       d="M 95.501225,154.96426 C 528.12908,524.16269 1094.3814,480.26011 1515.4063,151.36044 c 0,0 -64.8688,140.54896 -273.8904,227.04063 C 895.88229,521.42186 379.07082,463.95351 281.09794,441.46793 171.18144,416.24119 64.868757,347.76861 64.868757,347.76861 c 291.870853,94.0031 349.648343,99.4104 742.386873,88.29359 0,0 -317.13614,-12.61337 -490.11949,-95.50123 C 144.1528,257.67312 95.501225,154.96426 95.501225,154.96426 Z"
       id="path8"
       sodipodi:nodetypes="ccssccsc" /><path
       style="fill:#b3c6c5;fill-opacity:1;stroke:none;stroke-width:3;stroke-linecap:round;stroke-linejoin:round"
       d="m 998.25809,547.78061 c 0,0 -176.58718,86.49167 -272.0884,93.69932 -95.50123,7.20764 -198.21009,16.21719 -198.21009,16.21719 0,0 145.95471,41.44392 264.88076,14.41528 118.92606,-27.02865 205.41773,-124.33179 205.41773,-124.33179 z"
       id="path9" /><path
       style="fill:url(#linearGradient11);fill-opacity:1;stroke:none;stroke-width:3;stroke-linecap:round;stroke-linejoin:round"
       d="m 205.13698,47.14328 c 92.10524,-28.473235 156.67321,26.891817 114.67284,99.38314 99.50948,-91.505882 177.224,65.64551 131.2367,141.42983 0,0 31.85357,-19.11214 67.52956,1.27414 35.676,20.38629 33.12771,58.61057 33.12771,58.61057 0,0 -16.0626,-63.55256 -73.39902,-48.26285 -57.33642,15.28971 -69.30496,22.77999 -69.30496,22.77999 38.33168,-122.36314 -113.88615,-124.86622 -200.67747,-77.08563 0,0 -89.82706,-56.69934 -115.30993,-94.92362 C 67.529563,112.12456 205.13698,47.14328 205.13698,47.14328 Z"
       id="path10"
       sodipodi:nodetypes="cccscsccsc" /><path
       style="fill:#a0b9b7;fill-opacity:1;stroke:none;stroke-width:5.76909;stroke-linecap:round;stroke-linejoin:round"
       d="m 742.87914,242.16152 c 19.93583,-12.97737 33.69081,-12.45845 55.80764,-9.97339 4.90967,-25.24957 22.07008,-32.23192 41.58152,-45.26322 -17.82309,4.55335 -48.27807,7.78188 -52.41005,30.31985 -26.95375,0.49166 -29.83121,5.61883 -44.97911,24.91676 z"
       id="path11"
       sodipodi:nodetypes="ccccc" /><path
       style="fill:#a0b9b7;fill-opacity:1;stroke:none;stroke-width:5.76909;stroke-linecap:round;stroke-linejoin:round"
       d="m 728.08483,296.50953 c 0,0 51.32719,7.3634 58.47401,4.54799 7.14681,-2.81541 11.26165,-18.40849 21.22389,-26.42159 9.96223,-8.01311 15.15993,-10.39538 12.34452,-11.26166 -2.81541,-0.86629 -27.0713,11.47824 -34.00155,18.84161 -6.93025,7.3634 -5.1977,6.49713 -11.91138,8.01312 -6.71368,1.516 -38.98266,0.64971 -46.12949,6.28053 z"
       id="path12" /><path
       style="fill:#a0b9b7;fill-opacity:1;stroke:none;stroke-width:5.76909;stroke-linecap:round;stroke-linejoin:round"
       d="m 681.73876,372.74232 c 0.86628,-1.29943 0.43314,-4.33141 5.84741,-14.72679 5.41425,-10.39538 14.29363,-22.52332 17.32562,-22.30675 3.032,0.21658 6.06398,1.94913 9.96225,-0.86628 3.89825,-2.81541 6.06397,-4.33141 6.06397,-4.33141 0,0 10.17881,-0.86627 17.32563,2.81541 7.14683,3.6817 23.82274,8.22968 23.82274,8.22968 0,0 -20.14104,-22.52331 -36.81696,-21.2239 -16.67594,1.29943 -24.25589,3.46512 -32.48557,15.59308 -8.22968,12.12793 -11.04509,36.81696 -11.04509,36.81696 z"
       id="path13" /><path
       style="fill:#a0b9b7;fill-opacity:1;stroke:none;stroke-width:5.76909;stroke-linecap:round;stroke-linejoin:round"
       d="m 631.92757,319.24944 c 0,0 6.93026,-7.3634 15.37649,-8.44626 8.44626,-1.08285 15.59308,4.33142 15.59308,4.33142 0,0 8.22967,-8.22969 16.02621,-11.0451 7.79653,-2.81541 14.29364,-2.81541 14.29364,-2.81541 0,0 -6.49711,-6.06397 -15.59307,-2.16572 -9.09595,3.89827 -14.29364,8.22969 -14.29364,8.22969 0,0 -12.77766,-5.8474 -18.84163,-1.08286 -6.06397,4.76456 -12.56108,12.99424 -12.56108,12.99424 z"
       id="path14" /><path
       style="fill:#a0b9b7;fill-opacity:1;stroke:none;stroke-width:5.76909;stroke-linecap:round;stroke-linejoin:round"
       d="m 610.70367,351.08527 c 0,0 15.80963,-4.11484 21.44047,-1.94912 5.63083,2.1657 10.17881,4.11484 10.17881,4.11484 0,0 3.6817,-8.8794 9.09595,-12.5611 5.41427,-3.68169 12.77765,-6.71368 12.77765,-6.71368 0,0 -17.32561,3.03199 -21.22388,6.93026 -3.89827,3.89827 -5.1977,5.84739 -5.1977,5.84739 0,0 -18.84162,-3.68168 -27.0713,4.33141 z"
       id="path15" /></g></svg>
