<svg width="510" height="164" viewBox="0 0 510 164" version="1.1" id="svg1" xml:space="preserve" inkscape:export-filename="лого-2.png" inkscape:export-xdpi="96" inkscape:export-ydpi="96" inkscape:version="1.3.2 (091e20e, 2023-11-25)" sodipodi:docname="лого-2.svg" xmlns:inkscape="http://www.inkscape.org/namespaces/inkscape" xmlns:sodipodi="http://sodipodi.sourceforge.net/DTD/sodipodi-0.dtd" xmlns="http://www.w3.org/2000/svg" xmlns:svg="http://www.w3.org/2000/svg" style="max-width: 100%; max-height: 100%; width: auto; height: auto; transform: scale(1);"><sodipodi:namedview id="namedview1" pagecolor="#ffffff" bordercolor="#000000" borderopacity="0.25" inkscape:showpageshadow="2" inkscape:pageopacity="0.0" inkscape:pagecheckerboard="0" inkscape:deskcolor="#d1d1d1" inkscape:document-units="mm" inkscape:zoom="1.0582793" inkscape:cx="227.25569" inkscape:cy="-28.347903" inkscape:window-width="1866" inkscape:window-height="1016" inkscape:window-x="54" inkscape:window-y="27" inkscape:window-maximized="1" inkscape:current-layer="layer1" fill="#e0e0e0" style="fill: rgb(224, 224, 224);"></sodipodi:namedview><defs id="defs1" fill="#e0e0e0" style="fill: rgb(224, 224, 224);"></defs><g inkscape:label="Слой 1" inkscape:groupmode="layer" id="layer1" transform="translate(-268.62906,-661.17092)" data-element-index="0" style="cursor: pointer; fill: rgb(224, 224, 224);" fill="#e0e0e0" class="selected-element"><g id="g24" transform="translate(0.06308462,0.20801)" data-element-index="1" style="cursor: pointer; fill: rgb(224, 224, 224);" fill="#e0e0e0"><path style="font-style: normal; font-variant: normal; font-weight: normal; font-stretch: normal; font-size: 192px; font-family: &quot;Arial Black&quot;; opacity: 1; fill: rgb(224, 224, 224); fill-opacity: 1; stroke-width: 1.65921; stroke-linecap: round; stroke-linejoin: round; cursor: pointer;" d="m 738.54419,768.11959 c -0.75292,0.15101 -0.69125,1.70456 -0.69125,1.70456 0.27419,1.30603 6.54878,5.17708 11.07096,7.39654 4.52216,2.21946 25.59715,10.96238 26.61663,11.0459 1.01947,0.0835 2.32397,-1.62433 1.38257,-2.4888 -0.94141,-0.86446 -17.34413,-9.80639 -21.36381,-11.61715 -4.01968,-1.81075 -16.26219,-6.19206 -17.0151,-6.04105 z" id="path24" sodipodi:nodetypes="scsssss" data-element-index="2" class="" fill="#e0e0e0"></path><path style="font-style: normal; font-variant: normal; font-weight: normal; font-stretch: normal; font-size: 192px; font-family: &quot;Arial Black&quot;; opacity: 1; fill: rgb(224, 224, 224); fill-opacity: 1; stroke-width: 1.65921; stroke-linecap: round; stroke-linejoin: round; cursor: pointer;" d="m 738.12125,762.72951 c -1.65257,-0.0159 -2.74894,0.0629 -2.94532,0.24024 -0.62063,0.74387 -1.02577,2.28709 0.59807,2.49699 1.62385,0.2099 12.13982,1.52123 15.87915,2.47207 3.73932,0.95085 20.10331,10.37098 22.22786,8.58367 0.79145,-0.66582 -7.60074,-9.06681 -15.16601,-11.22851 -5.67396,-1.62129 -15.63605,-2.51678 -20.59375,-2.56446 z" id="path23" sodipodi:nodetypes="scsssss" data-element-index="3" class="" fill="#e0e0e0"></path><path style="font-style: normal; font-variant: normal; font-weight: normal; font-stretch: normal; font-size: 192px; font-family: &quot;Arial Black&quot;; opacity: 1; fill: rgb(224, 224, 224); fill-opacity: 1; stroke-width: 1.65921; stroke-linecap: round; stroke-linejoin: round; cursor: pointer;" d="m 739.36148,746.29397 c -2.12044,0.009 -4.14228,0.35587 -4.5918,0.57031 -0.89903,0.42888 -0.72364,2.44927 -0.72364,2.44927 0,0 4.97784,0.97749 6.5716,2.39737 1.59377,1.41987 2.97209,3.85842 3.89008,3.56395 4.23146,-1.35732 1.73516,-5.26863 0.0413,-7.53168 -0.84694,-1.13153 -3.06706,-1.45854 -5.1875,-1.44922 z" id="path22" sodipodi:nodetypes="cscsssc" data-element-index="4" class="" fill="#e0e0e0"></path><path style="font-style: normal; font-variant: normal; font-weight: normal; font-stretch: normal; font-size: 192px; font-family: &quot;Arial Black&quot;; opacity: 1; fill: rgb(224, 224, 224); fill-opacity: 1; stroke-width: 1.65921; stroke-linecap: round; stroke-linejoin: round; cursor: pointer;" d="m 710.93123,732.89772 c -0.87953,-0.022 -3.64945,0.48377 -4.33065,1.16173 -1.55705,1.54962 1.83509,3.24892 4.22379,3.84584 2.3887,0.59694 2.58333,0.0821 4.34766,1.8711 1.76433,1.78895 3.75195,2.625 3.75195,2.625 0,0 1.47312,-1.72764 1.47312,-2.54097 0,-0.81333 -3.25537,-3.82427 -4.93777,-5.93706 -0.94636,-1.18844 -3.39727,-0.99738 -4.5281,-1.02564 z" id="path21" sodipodi:nodetypes="sssscsss" data-element-index="5" fill="#e0e0e0"></path><path style="font-style: normal; font-variant: normal; font-weight: normal; font-stretch: normal; font-size: 192px; font-family: &quot;Arial Black&quot;; opacity: 1; fill: rgb(224, 224, 224); fill-opacity: 1; stroke-width: 1.65921; stroke-linecap: round; stroke-linejoin: round; cursor: pointer;" d="m 699.43765,688.83889 c -1.27731,-0.0153 -2.4435,0.40971 -3.2433,3.87968 -0.98437,4.27072 0.0357,12.76943 -1.62889,20.32596 -1.06103,4.81664 -2.93907,6.0851 -3.54392,8.30651 -0.60485,2.22141 10.37743,0.70272 11.44148,-1.26801 1.06405,-1.97073 3.44053,-7.78767 1.53938,-11.12977 -1.90114,-3.34212 -2.78379,-10.51946 -1.46824,-11.73957 1.31556,-1.22012 2.10049,1.43294 6.06256,7.34539 3.96203,5.91244 2.27924,8.28911 3.31748,9.73684 1.03824,1.44773 12.31982,1.79121 18.4375,3.31055 6.11768,1.51933 17.75007,11.45805 22.24414,12.93164 4.49406,1.4736 14.23673,-6.9642 16.95306,-7.29982 2.71634,-0.33563 -0.17006,2.51596 -3.19238,8.00585 -2.47046,4.48747 -6.0575,4.34817 -9.39545,6.55373 -3.33795,2.20557 -1.35689,2.45564 0.28838,3.98765 1.23168,1.1469 2.0819,5.45248 3.01039,7.88286 0.38146,0.99848 3.39927,-3.34776 3.82876,-4.36537 0.57778,-1.36897 7.93375,-9.04397 9.28849,-10.7317 2.29942,-2.86461 6.50873,-15.67505 4.67578,-19.73437 -0.76831,-1.70153 -1.62844,-0.30694 -4.78321,0.16406 -3.15475,0.471 -18.63466,7.64387 -20.80273,8.49023 -2.16808,0.84637 -11.5268,-9.26503 -19.06641,-11.95508 -7.5396,-2.69005 -14.33918,-4.0236 -14.33918,-4.0236 0,0 -3.31376,-4.76998 -5.74871,-8.24788 -2.43494,-3.4779 -10.06858,-9.01924 -12.70703,-10.11328 -0.49471,-0.20513 -0.8732,-0.30896 -1.16797,-0.3125 z" id="path20" sodipodi:nodetypes="sssssssssssssssssssssscssss" data-element-index="6" class="" fill="#e0e0e0"></path><path style="font-style: normal; font-variant: normal; font-weight: normal; font-stretch: normal; font-size: 192px; font-family: &quot;Arial Black&quot;; opacity: 1; fill: rgb(224, 224, 224); fill-opacity: 1; stroke-width: 1.65921; stroke-linecap: round; stroke-linejoin: round; cursor: pointer;" d="m 535.50797,664.24319 c -1.152,0 -4.35162,13.1194 -9.59961,39.35937 -5.248,26.23997 -7.8711,41.2811 -7.8711,45.12109 0,4.992 -1.08767,11.39123 -3.26367,19.19922 -2.048,7.808 -3.77755,11.71289 -5.18555,11.71289 -1.66399,0 -3.83934,-4.16047 -6.52734,-12.48047 -4.73599,-13.95198 -10.75088,-25.53596 -18.04687,-34.75195 -7.296,-9.21599 -13.88935,-13.82422 -19.77735,-13.82422 -3.71199,0 -6.59067,1.98318 -8.63867,5.95117 -1.28,2.432 -3.77628,8.96 -7.48828,19.58399 -3.584,10.49599 -6.97579,20.28896 -10.17578,29.37695 -3.2,8.95999 -5.24853,13.43946 -6.14453,13.43946 -1.536,0 -4.48004,-10.68848 -8.83204,-32.06446 -5.88799,-29.43997 -10.55962,-49.66388 -14.01562,-60.67187 -3.456,-11.00799 -6.84778,-16.51172 -10.17578,-16.51172 -2.176,0 -3.26563,2.68846 -3.26563,8.06445 0,5.888 0.25754,10.43086 0.76953,13.63086 0.64,3.2 1.27993,5.12172 1.91993,5.76172 0.768,0.512 1.40792,1.4075 1.91992,2.6875 0.64,1.152 0.95898,2.943 0.95898,5.375 0,3.968 0.8955,9.02397 2.6875,15.16797 1.792,6.91199 4.28829,19.07248 7.48828,36.48047 3.328,17.27998 6.65638,33.34342 9.98438,48.1914 1.024,4.864 2.04827,8.00021 3.07226,9.40821 1.152,1.536 2.8796,2.30468 5.1836,2.30468 2.688,0 4.54436,-0.8955 5.56836,-2.6875 1.024,-1.79199 2.81695,-6.6558 5.37695,-14.59179 6.016,-19.07198 12.73421,-38.14482 20.1582,-57.2168 l 5.76172,-14.40039 5.75977,5.56836 c 3.328,3.072 7.42311,9.53659 12.28711,19.39258 4.86399,9.85599 7.9368,17.79064 9.21679,23.80664 1.152,5.37599 2.36844,8.06445 3.64844,8.06445 1.024,0 2.17508,1.47202 3.45508,4.41602 1.28,2.81599 2.94419,5.69662 4.99219,8.64062 2.048,2.816 4.47892,4.22461 7.29492,4.22461 1.92,0 3.45738,-0.83209 4.60937,-2.49609 1.28,-1.664 1.91993,-4.03347 1.91993,-7.10547 0,-2.176 0.12681,-4.09577 0.38281,-5.75977 0.256,-1.664 0.64034,-3.455 1.15234,-5.375 0.64,-2.04799 1.66427,-6.27188 3.07227,-12.67187 1.536,-6.528 3.20019,-14.33584 4.99219,-23.42383 l 9.98437,-49.91992 c 3.072,-15.35999 4.60742,-25.15296 4.60742,-29.37696 0,-3.71199 -0.70333,-6.20828 -2.11133,-7.48828 -1.40799,-1.40799 -3.77747,-2.11132 -7.10546,-2.11132 z" id="path19" data-element-index="7" class="" fill="#e0e0e0"></path><path style="font-style: normal; font-variant: normal; font-weight: normal; font-stretch: normal; font-size: 192px; font-family: &quot;Arial Black&quot;; opacity: 1; fill: rgb(224, 224, 224); fill-opacity: 1; stroke-width: 1.65921; stroke-linecap: round; stroke-linejoin: round; cursor: pointer;" d="m 665.68765,664.11819 c -16.13454,-0.0663 -32.71292,0.92424 -44.19726,4.26953 -18.37494,5.35244 -35.63895,9.62704 -44.21289,23.38281 -8.57394,13.75577 -17.09288,27.94378 -15.72461,40.07812 1.36828,12.13435 11.18998,38.06479 20.3789,47.25977 9.18893,9.19498 24.31184,25.38122 43.54297,32.00195 19.23113,6.62074 42.90647,10.96813 59.06836,7.78711 16.16191,-3.18101 40.37815,-9.24861 44.08902,-23.44912 3.41272,-13.05957 4.49671,-24.58993 -3.81167,-34.35557 -9.40173,-11.05076 -14.19102,-20.13779 -29.78516,-23.2539 -15.59414,-3.11612 -33.18029,4.05863 -39.33008,7.22265 -6.14978,3.16402 -17.20898,11.61719 -17.20898,11.61719 -1.26613,0.47246 -11.79745,6.92438 -11.52735,9.90821 0.2701,2.98383 7.75497,2.33028 11.786,2.17158 2.84201,-0.11188 8.80592,0.3065 12.92378,-2.91579 4.11786,-3.22229 7.94327,-10.83982 19.993,-13.68141 12.04972,-2.84159 20.59796,-7.08003 29.55596,-1.54468 8.95801,5.53536 18.03535,15.98593 18.51439,24.10115 0.47904,8.11523 2.55095,12.79915 -3.02508,17.41602 -5.57602,4.61689 -22.01416,16.2207 -45.20117,16.2207 -23.18702,0 -36.43287,-1.90392 -53.96289,-15.96093 -17.53003,-14.05702 -34.33144,-25.45415 -37.69727,-45.78321 -3.36581,-20.32906 -5.19122,-30.51827 9.38022,-47.69813 14.57144,-17.17986 17.26663,-18.73876 45.11978,-23.08116 38.17212,-5.95116 67.0519,-1.0708 81.11328,3.98632 14.06139,5.05713 23.22262,20.76761 28.33203,27.68164 5.10942,6.91404 8.85338,13.64443 10.17383,11.80469 1.32044,-1.83973 -1.65371,-18.7629 -13.17578,-29.60156 -11.52206,-10.83866 -25.96784,-23.20879 -47.74414,-24.60156 -8.16611,-0.52229 -17.68646,-0.94265 -27.36719,-0.98242 z" id="path18" sodipodi:nodetypes="ssssssssssscssssssssssssssssss" data-element-index="8" class="" fill="#e0e0e0"></path><path style="font-style: normal; font-variant: normal; font-weight: normal; font-stretch: normal; font-size: 192px; font-family: &quot;Arial Black&quot;; opacity: 1; fill: rgb(224, 224, 224); fill-opacity: 1; stroke-width: 1.65921; stroke-linecap: round; stroke-linejoin: round; cursor: pointer;" d="m 331.79703,661.17092 c -11.26399,0 -23.1689,4.47946 -35.71289,13.43945 -12.54399,8.83199 -20.41524,19.13612 -23.61524,30.91211 -2.55999,8.95999 -3.83984,26.81639 -3.83984,53.56836 0,14.84799 0.63992,23.55133 1.91992,26.11133 9.59999,19.71198 22.14483,29.56836 37.63281,29.56836 6.272,0 12.67123,-1.7276 19.19922,-5.18359 6.528,-3.456 12.2239,-7.67988 17.08789,-12.67188 4.992,-5.11999 9.47146,-10.43155 13.43946,-15.93555 4.09599,-5.50399 7.1688,-10.3678 9.21679,-14.59179 2.176,-4.224 3.26368,-7.10463 3.26368,-8.64063 0,-3.71199 -0.70333,-5.56836 -2.11133,-5.56836 -1.408,0 -3.20096,1.40861 -5.37696,4.22461 -2.04799,2.816 -4.79986,6.59213 -8.25586,11.32813 -3.32799,4.60799 -6.52761,8.38412 -9.5996,11.32812 l -9.79297,9.79102 c -2.432,2.68799 -6.65588,5.43986 -12.67188,8.25586 -6.01599,2.81599 -10.68763,4.22461 -14.01562,4.22461 -4.864,0 -9.59904,-1.79296 -14.20703,-5.37696 -4.608,-3.58399 -8.12855,-8.25563 -10.56055,-14.01562 -2.432,-5.76 -3.64844,-13.2469 -3.64844,-22.46289 0,-19.45598 1.08768,-33.984 3.26367,-43.58399 2.176,-9.59999 5.37757,-16.7045 9.60157,-21.3125 4.99199,-5.50399 12.15991,-10.49656 21.5039,-14.97656 9.47199,-4.47999 17.53541,-6.71875 24.19141,-6.71875 2.688,0 4.67117,1.40666 5.95117,4.22266 0.768,1.408 1.92103,2.56103 3.45703,3.45703 1.536,0.896 3.00802,1.34375 4.41602,1.34375 1.91999,0 2.8789,-0.8321 2.8789,-2.4961 0,-4.60799 -2.49433,-8.76847 -7.48633,-12.48046 -4.86399,-3.84 -10.24091,-5.75977 -16.1289,-5.75977 z" id="text12" data-element-index="9" class="" fill="#e0e0e0"></path></g></g></svg>